<?xml version="1.0" encoding="UTF-8" standalone="no"?>
<svg
   id="Layer_1"
   data-name="Layer 1"
   viewBox="0 0 127.643 93.782996"
   version="1.1"
   sodipodi:docname="email-icon.svg"
   width="127.643"
   height="93.782997"
   inkscape:version="1.2.1 (9c6d41e410, 2022-07-14)"
   xmlns:inkscape="http://www.inkscape.org/namespaces/inkscape"
   xmlns:sodipodi="http://sodipodi.sourceforge.net/DTD/sodipodi-0.dtd"
   xmlns:xlink="http://www.w3.org/1999/xlink"
   xmlns="http://www.w3.org/2000/svg"
   xmlns:svg="http://www.w3.org/2000/svg"
   xmlns:rdf="http://www.w3.org/1999/02/22-rdf-syntax-ns#"
   xmlns:cc="http://creativecommons.org/ns#"
   xmlns:dc="http://purl.org/dc/elements/1.1/">
  <defs
     id="defs9" />
  <sodipodi:namedview
     id="namedview7"
     pagecolor="#ffffff"
     bordercolor="#000000"
     borderopacity="0.25"
     inkscape:showpageshadow="2"
     inkscape:pageopacity="0.0"
     inkscape:pagecheckerboard="0"
     inkscape:deskcolor="#d1d1d1"
     showgrid="false"
     inkscape:zoom="4.5239703"
     inkscape:cx="52.056045"
     inkscape:cy="40.782761"
     inkscape:window-width="1920"
     inkscape:window-height="991"
     inkscape:window-x="-9"
     inkscape:window-y="-9"
     inkscape:window-maximized="1"
     inkscape:current-layer="Layer_1" />
  <title
     id="title2">email</title>
  <path
     sodipodi:type="inkscape:offset"
     inkscape:radius="2.4314926"
     inkscape:original="M 7.0507812 0 A 7.07 7.07 0 0 0 0.05078125 7.0507812 L 0.05078125 81.919922 A 7.07 7.07 0 0 0 7.0507812 88.919922 L 115.7793 88.919922 A 7 7 0 0 0 120.28906 87.269531 A 2.62 2.62 0 0 0 120.94922 86.810547 A 2.78 2.78 0 0 0 121.60938 85.810547 A 7 7 0 0 0 122.83008 81.810547 L 122.83008 7.0507812 A 7.07 7.07 0 0 0 115.83008 0 L 7.0507812 0 z M 10.210938 5.4101562 L 112.26953 5.4101562 L 62.390625 47.699219 L 10.210938 5.4101562 z M 116.13086 9.1992188 L 116.13086 79.150391 L 80.669922 40.550781 L 116.13086 9.1992188 z M 6.75 9.5390625 L 43.529297 40.619141 L 6.75 78.839844 L 6.75 9.5390625 z M 49.070312 45.390625 L 60.769531 54.599609 A 2.7 2.7 0 0 0 64.220703 54.599609 L 75.220703 45.390625 L 112.76953 83.449219 L 9.7695312 83.449219 L 49.070312 45.390625 z "
     xlink:href="#path4"
     id="path846"
     d="M 7.0273438,-2.4316406 C 4.5598805,-2.4072179 2.1174343,-1.3761401 0.37890625,0.375 -1.3596218,2.1261401 -2.3742725,4.5773466 -2.3808594,7.0449219 a 2.4317357,2.4317357 0 0 0 0,0.00586 V 81.919922 a 2.4317357,2.4317357 0 0 0 0,0.02344 c 0.0242,2.456161 1.0463509,4.888148 2.78320315,6.625 1.73685225,1.736853 4.16883915,2.759003 6.62500005,2.783203 a 2.4317357,2.4317357 0 0 0 0.023437,0 H 115.7793 a 2.4317357,2.4317357 0 0 0 0.002,0 c 2.12819,-0.0015 4.22801,-0.782621 5.88672,-2.115234 0.33707,-0.197416 0.67627,-0.39645 0.95898,-0.666016 a 2.4317357,2.4317357 0 0 0 0.0156,-0.01367 c 0.50607,-0.490818 0.88287,-1.101347 1.1543,-1.751953 0.92971,-1.502811 1.47749,-3.244218 1.46484,-5.011719 V 7.0507812 a 2.4317357,2.4317357 0 0 0 0,-0.00586 c -0.007,-2.4675753 -1.02124,-4.9187818 -2.75977,-6.6699219 -1.73852,-1.7511401 -4.18097,-2.7822179 -6.64843,-2.8066406 a 2.4317357,2.4317357 0 0 0 -0.0234,0 H 7.0507812 a 2.4317357,2.4317357 0 0 0 -0.023437,0 z M 17.072266,7.8417969 H 105.64062 L 62.355469,44.541016 Z M 113.69922,14.595703 V 72.910156 L 84.138672,40.732422 Z M 9.1816406,14.777344 39.978516,40.802734 9.1816406,72.806641 Z m 40.0546874,33.83789 9.978516,7.853516 c 1.82427,1.515893 4.736277,1.515893 6.560547,0 a 2.4317357,2.4317357 0 0 0 0.0059,-0.0039 l 9.283203,-7.771485 31.890627,32.324219 H 15.775391 Z"
     transform="translate(2.3809755,2.4315379)"
     style="fill:#65451f;fill-opacity:1" />
  <metadata
     id="metadata895">
    <rdf:RDF>
      <cc:Work
         rdf:about="">
        <dc:title>email</dc:title>
      </cc:Work>
    </rdf:RDF>
  </metadata>
</svg>
