<?xml version="1.0" encoding="UTF-8" standalone="no"?>
<!-- Uploaded to: SVG Repo, www.svgrepo.com, Generator: SVG Repo Mixer Tools -->

<svg
   width="800px"
   height="800px"
   viewBox="0 0 24 24"
   fill="none"
   version="1.1"
   id="svg4"
   sodipodi:docname="map-mark-icon.svg"
   inkscape:version="1.2.1 (9c6d41e410, 2022-07-14)"
   xmlns:inkscape="http://www.inkscape.org/namespaces/inkscape"
   xmlns:sodipodi="http://sodipodi.sourceforge.net/DTD/sodipodi-0.dtd"
   xmlns="http://www.w3.org/2000/svg"
   xmlns:svg="http://www.w3.org/2000/svg">
  <defs
     id="defs8" />
  <sodipodi:namedview
     id="namedview6"
     pagecolor="#ffffff"
     bordercolor="#000000"
     borderopacity="0.25"
     inkscape:showpageshadow="2"
     inkscape:pageopacity="0.0"
     inkscape:pagecheckerboard="0"
     inkscape:deskcolor="#d1d1d1"
     showgrid="false"
     inkscape:zoom="1.005"
     inkscape:cx="246.26866"
     inkscape:cy="328.85572"
     inkscape:window-width="1920"
     inkscape:window-height="991"
     inkscape:window-x="-9"
     inkscape:window-y="-9"
     inkscape:window-maximized="1"
     inkscape:current-layer="svg4" />
  <path
     fill="#000000"
     fill-rule="evenodd"
     d="M11.291 21.706 12 21l-.709.706zM12 21l.708.706a1 1 0 0 1-1.417 0l-.006-.007-.017-.017-.062-.063a47.708 47.708 0 0 1-1.04-1.106 49.562 49.562 0 0 1-2.456-2.908c-.892-1.15-1.804-2.45-2.497-3.734C4.535 12.612 4 11.248 4 10c0-4.539 3.592-8 8-8 4.408 0 8 3.461 8 8 0 1.248-.535 2.612-1.213 3.87-.693 1.286-1.604 2.585-2.497 3.735a49.583 49.583 0 0 1-3.496 4.014l-.062.063-.017.017-.006.006L12 21zm0-8a3 3 0 1 0 0-6 3 3 0 0 0 0 6z"
     clip-rule="evenodd"
     id="path2"
     style="fill:#65451f;fill-opacity:1" />
</svg>
