<?xml version="1.0" encoding="UTF-8" standalone="no"?>
<svg
   version="1.1"
   id="Layer_1"
   x="0px"
   y="0px"
   viewBox="0 0 122.88 122.27"
   style="enable-background:new 0 0 122.88 122.27"
   xml:space="preserve"
   sodipodi:docname="phone-icon.svg"
   inkscape:version="1.2.1 (9c6d41e410, 2022-07-14)"
   xmlns:inkscape="http://www.inkscape.org/namespaces/inkscape"
   xmlns:sodipodi="http://sodipodi.sourceforge.net/DTD/sodipodi-0.dtd"
   xmlns="http://www.w3.org/2000/svg"
   xmlns:svg="http://www.w3.org/2000/svg"><defs
     id="defs9" /><sodipodi:namedview
     id="namedview7"
     pagecolor="#ffffff"
     bordercolor="#000000"
     borderopacity="0.25"
     inkscape:showpageshadow="2"
     inkscape:pageopacity="0.0"
     inkscape:pagecheckerboard="0"
     inkscape:deskcolor="#d1d1d1"
     showgrid="false"
     inkscape:zoom="6.5756115"
     inkscape:cx="56.800801"
     inkscape:cy="61.211037"
     inkscape:window-width="1920"
     inkscape:window-height="991"
     inkscape:window-x="-9"
     inkscape:window-y="-9"
     inkscape:window-maximized="1"
     inkscape:current-layer="Layer_1" /><g
     id="g4"
     style="fill:#65451f;fill-opacity:1"><path
       d="M33.84,50.25c4.13,7.45,8.89,14.6,15.07,21.12c6.2,6.56,13.91,12.53,23.89,17.63c0.74,0.36,1.44,0.36,2.07,0.11 c0.95-0.36,1.92-1.15,2.87-2.1c0.74-0.74,1.66-1.92,2.62-3.21c3.84-5.05,8.59-11.32,15.3-8.18c0.15,0.07,0.26,0.15,0.41,0.21 l22.38,12.87c0.07,0.04,0.15,0.11,0.21,0.15c2.95,2.03,4.17,5.16,4.2,8.71c0,3.61-1.33,7.67-3.28,11.1 c-2.58,4.53-6.38,7.53-10.76,9.51c-4.17,1.92-8.81,2.95-13.27,3.61c-7,1.03-13.56,0.37-20.27-1.69 c-6.56-2.03-13.17-5.38-20.39-9.84l-0.53-0.34c-3.31-2.07-6.89-4.28-10.4-6.89C31.12,93.32,18.03,79.31,9.5,63.89 C2.35,50.95-1.55,36.98,0.58,23.67c1.18-7.3,4.31-13.94,9.77-18.32c4.76-3.84,11.17-5.94,19.47-5.2c0.95,0.07,1.8,0.62,2.25,1.44 l14.35,24.26c2.1,2.72,2.36,5.42,1.21,8.12c-0.95,2.21-2.87,4.25-5.49,6.15c-0.77,0.66-1.69,1.33-2.66,2.03 c-3.21,2.33-6.86,5.02-5.61,8.18L33.84,50.25L33.84,50.25L33.84,50.25z"
       id="path2"
       style="fill:#65451f;fill-opacity:1" /></g></svg>
